<svg width="32" height="32" viewBox="0 0 32 32" fill="none" xmlns="http://www.w3.org/2000/svg">
  <!-- Background with professional gradient -->
  <rect width="32" height="32" rx="8" fill="url(#gradient)"/>
  
  <!-- Subtle inner glow -->
  <rect x="1" y="1" width="30" height="30" rx="7" fill="none" stroke="url(#innerGlow)" stroke-width="0.5"/>
  
  <!-- Letter D -->
  <path d="M6 8h4c3 0 5 2 5 5v2c0 3-2 5-5 5H6V8zm2 2v10h2c2 0 3-1 3-3v-4c0-2-1-3-3-3H8z" fill="white" opacity="0.95"/>
  
  <!-- Letter P -->
  <path d="M17 8h4c2 0 3 1 3 3s-1 3-3 3h-4v6h-2V8zm2 2v4h2c1 0 1-1 1-2s0-2-1-2h-2z" fill="white" opacity="0.95"/>
  
  <!-- Tech accent dots -->
  <circle cx="26" cy="8" r="1" fill="white" opacity="0.6"/>
  <circle cx="26" cy="24" r="1" fill="white" opacity="0.4"/>
  <circle cx="6" cy="26" r="0.8" fill="white" opacity="0.5"/>
  
  <defs>
    <!-- Main gradient -->
    <linearGradient id="gradient" x1="0%" y1="0%" x2="100%" y2="100%">
      <stop offset="0%" style="stop-color:#1e40af;stop-opacity:1" />
      <stop offset="50%" style="stop-color:#3b82f6;stop-opacity:1" />
      <stop offset="100%" style="stop-color:#60a5fa;stop-opacity:1" />
    </linearGradient>
    
    <!-- Inner glow -->
    <linearGradient id="innerGlow" x1="0%" y1="0%" x2="100%" y2="100%">
      <stop offset="0%" style="stop-color:#ffffff;stop-opacity:0.3" />
      <stop offset="100%" style="stop-color:#ffffff;stop-opacity:0.1" />
    </linearGradient>
  </defs>
</svg>
